<svg width="24" height="24" viewBox="0 0 24 24" fill="none" xmlns="http://www.w3.org/2000/svg">
<path d="M7 13.6C7 13.04 7 12.76 7.10899 12.546C7.20487 12.3579 7.35785 12.2049 7.54601 12.109C7.75992 12 8.03995 12 8.6 12H9.4C9.96005 12 10.2401 12 10.454 12.109C10.6422 12.2049 10.7951 12.3579 10.891 12.546C11 12.76 11 13.04 11 13.6V14.4C11 14.9601 11 15.2401 10.891 15.454C10.7951 15.6422 10.6422 15.7952 10.454 15.891C10.2401 16 9.96005 16 9.4 16H8.6C8.03995 16 7.75992 16 7.54601 15.891C7.35785 15.7952 7.20487 15.6422 7.10899 15.454C7 15.2401 7 14.9601 7 14.4V13.6Z" fill="#191919"/>
<path fill-rule="evenodd" clip-rule="evenodd" d="M18.2197 20.9798C17.969 21.0002 17.6845 21.0001 17.4463 21H6.55377C6.31553 21.0001 6.03101 21.0002 5.78036 20.9798C5.48993 20.956 5.07394 20.8951 4.63805 20.673C4.07357 20.3854 3.61462 19.9265 3.327 19.362C3.10491 18.9261 3.04402 18.5101 3.02029 18.2197C2.99981 17.969 2.99992 17.6845 3.00001 17.4463L3.00001 6.46159C2.99995 6.26327 2.99987 6.02632 3.01417 5.81672C3.03063 5.57543 3.07255 5.22817 3.22838 4.85197C3.53286 4.11688 4.11688 3.53286 4.85197 3.22838C5.22817 3.07255 5.57543 3.03063 5.81672 3.01417C6.02632 2.99987 6.26327 2.99995 6.46159 3.00001H17.5384C17.7368 2.99995 17.9737 2.99987 18.1833 3.01417C18.4246 3.03063 18.7719 3.07255 19.1481 3.22838C19.3278 3.30283 19.4985 3.39401 19.6583 3.50001C20.0873 3.78457 20.4376 4.17595 20.673 4.63805C20.7086 4.70779 20.7415 4.77914 20.7717 4.85197C20.9275 5.22817 20.9694 5.57543 20.9859 5.81672C21.0001 6.02483 21.0001 6.25991 21 6.45736L21 17.4463C21.0001 17.6845 21.0002 17.969 20.9798 18.2197C20.956 18.5101 20.8951 18.9261 20.673 19.362C20.3854 19.9265 19.9265 20.3854 19.362 20.673C18.9261 20.8951 18.5101 20.956 18.2197 20.9798ZM5.00002 17.4V9.82788C5.31847 9.93816 5.60745 9.97158 5.81672 9.98586C6.02631 10.0002 6.26328 10.0001 6.46159 10H17.5385C17.7368 10.0001 17.9737 10.0002 18.1833 9.98586C18.3926 9.97158 18.6816 9.93816 19 9.82787V17.4C19 17.9601 19 18.2401 18.891 18.454C18.7952 18.6422 18.6422 18.7952 18.454 18.891C18.2401 19 17.9601 19 17.4 19H16.9904C17 18.8429 17 18.6492 17 18.4V13.6C17 13.04 17 12.76 16.891 12.546C16.7951 12.3579 16.6422 12.2049 16.454 12.109C16.2401 12 15.9601 12 15.4 12H14.6C14.0399 12 13.7599 12 13.546 12.109C13.3578 12.2049 13.2049 12.3579 13.109 12.546C13 12.76 13 13.04 13 13.6V18.4C13 18.6492 13 18.8429 13.0096 19H6.60002C6.03997 19 5.75995 19 5.54603 18.891C5.35787 18.7952 5.20489 18.6422 5.10902 18.454C5.00002 18.2401 5.00002 17.9601 5.00002 17.4ZM5.07614 7.3827C5.00369 7.2078 5.00019 6.98834 5.00003 6.56591C5.00007 6.02851 5.00226 5.75556 5.10902 5.54603C5.20489 5.35787 5.35787 5.20489 5.54603 5.10902C5.75995 5.00002 6.03997 5.00002 6.60002 5.00002H17.4C17.9601 5.00002 18.2401 5.00002 18.454 5.10902C18.6422 5.20489 18.7952 5.35787 18.891 5.54603C18.9954 5.75084 18.9998 6.01625 19 6.53001C19 6.97604 18.9984 7.20292 18.9239 7.3827C18.8224 7.62773 18.6277 7.8224 18.3827 7.9239C18.1989 8.00002 17.966 8.00002 17.5 8.00002H6.50002C6.03408 8.00002 5.8011 8.00002 5.61733 7.9239C5.37231 7.8224 5.17763 7.62773 5.07614 7.3827Z" fill="#191919"/>
</svg>
